/* XPM */
static char *_01c1e7fd8f9442899f02abc72111b3bzsSdr8CNbTYMQ5nJ[] = {
/* columns rows colors chars-per-pixel */
"64 64 6 1 ",
"  c None",
". c black",
"X c #ED1C24",
"o c #FF7F27",
"O c #FFC90E",
"+ c #FFF200",
/* pixels */
"                                                                ",
"                                                                ",
"                                                                ",
"                                                                ",
"                                                                ",
"                                                                ",
"                                                                ",
"                                                                ",
"                                                                ",
"                                                                ",
"                                                                ",
"                                                                ",
"                                                                ",
"                              ..................                ",
"                              ..................                ",
"                              ..................                ",
"                              ..................                ",
"                              ..................                ",
"                              ..................                ",
"                              XXXXXXXXXXXXXXXXXX                ",
"                        ................................        ",
"                             O+++++++++++++++++O                ",
"                            O+++++++++++++++++++O               ",
"                            O++..+++++++++++..++O               ",
"                           O++....+++++++++....++O              ",
"                           O++....+++++++++....++O              ",
"                        +++O+++..+++++++++++..+++O              ",
"                      +++++O+++++++++++++++++++++O+++           ",
"                    +++++++O+++++++++++++++++++++O+++++         ",
"                  O++++++++O+++++++++++++++++++++O+++++O+       ",
"                 ++O+++++++O+++++++++++++++++++++O++++O+++      ",
"                +++O++++++++O++++ooooooooooo++++O+++++O++++     ",
"                ++++O+++++++O+++ooooooooooooo+++O++++O+++++     ",
"               +++++O++++++++O+++ooooooooooo+++O+++++O++++++    ",
"               +++++O+++++++++O+++++++++++++++O++++++O++++++    ",
"                ++++O+++++++++OO+++++++++++++OO++++++O++++++    ",
"                ++++O+++++++++++O+++++++++++O++++++++O++++++    ",
"                 ++O+++++++++++++OO+++++++OO+++++++++O+++++     ",
"                 ++O+++++++++++++++OOOOOOO+++++++++++O+++++     ",
"                  O+++++++++++++++++++++++++++++++++++O+++      ",
"                   +++++++++++++++++++++++++++++++++++O++       ",
"                     ++++++++++++++++++++++++++++++++++O        ",
"                       ++++++++++++++++++++++++++++++           ",
"                          ++++++++++++++++++++++++              ",
"                               ++++++++++++++                   ",
"                                                                ",
"                                                                ",
"                                                                ",
"                                                                ",
"                                                                ",
"                                                                ",
"                                                                ",
"                                                                ",
"                                                                ",
"                                                                ",
"                                                                ",
"                                                                ",
"                                                                ",
"                                                                ",
"                                                                ",
"                                                                ",
"                                                                ",
"                                                                ",
"                                                                "
};
