/* XPM */
static char *_b7837f93fc842aeadd0ad739a890371biTMSrIpt2yJSPgS[] = {
/* columns rows colors chars-per-pixel */
"64 64 5 1 ",
"  c None",
". c black",
"X c #FF7F27",
"o c #FFC90E",
"O c #FFF200",
/* pixels */
"                                                                ",
"                                                                ",
"                                                                ",
"                                                                ",
"                                                                ",
"                                                                ",
"                                                                ",
"                                                                ",
"                                                                ",
"                                                                ",
"                                                                ",
"                                                                ",
"                                                                ",
"              OOOOOOOO                                          ",
"            OOOOOOOOOOOO                                        ",
"          OOOOOOOOOOOOOOOO                                      ",
"         OOOOOOOOOOOOOOOOOO                                     ",
"        OOOOOOOOOOOOOOOOOOOO                                    ",
"       OOOOOOOOOOOOOOOOOOOOOO                                   ",
"       OOOOOOOOOOOOOOOOOOOOOO                                   ",
"       .OOOOOOOOOOOOOO..OOOOO                                   ",
"      ..OOOOOOOOOOOOO....OOOOO                                  ",
"      .OOOOOOOOOOOOOO....OOOOO                                  ",
"      OOOOOOOOOOOOOOOO..OOOOOO                                  ",
"      OOOOOOOOOOOOOOOOOOOOOOOO                                  ",
"      OOOOOOOOOOOOOOOOOOOOOOOo OOOOOOOOOOOOOO                   ",
"      OOOOOOOOOOOOOOOOOOOOOOOoOOOOOOOOOOOOOOOOOOOO              ",
"  XXXXXXXXXXXXXXXXOOOOOOOOOOOoOOOOOOOOOOOOOOOOOOOOOOO           ",
" XXXXXXXXXXXXXXXXXXOOOOOOOOOooOOOOOOOOOOOOOOOOOOOOOOOOO         ",
" XXXXXXXXXXXXXXXXXXOOOOOOOOOoOOOOOOOOOOOOOOOOOOOOOOOOOOOO       ",
"  XXXXXXXXXXXXXXXXOOOOOOOOooOOOOOOOOOOOOoooooooOOOOOOOOOOO      ",
"         OOOOOOOOOOOOOOOOooOOOOOOOOOOoooOOOOOOOoooOOOOOOOOO     ",
"          OOOOOOOOOOOOOoooOOOOOOOOOOoOOOOOOOOOOOOOoOOOOOOOO     ",
"            OOOOOOOOOoooOOOOOOOOOOOoOOOOOOOOOOOOOOOoOOOOOOOO    ",
"              OOOOooooOOOOOOOOOOOOoOOOOOOOOOOOOOOOOOoOOOOOOO    ",
"                oooOOOOOOOOOOOOOOOoOOOOOOOOOOOOOOOOOoOOOOOOO    ",
"                OOOOOOOOOOOOOOOOOOoOOOOOOOOOOOOOOOOOoOOOOOOO    ",
"                 OOOOOOOOOOOOOOOOOOoOOOOOOOOOOOOOOOoOOOOOOO     ",
"                 OOOOOOOOOOOOOOOOOOOoOOOOOOOOOOOOOoOOOOOOOO     ",
"                  OOOOOOOOOOOOOOOOOOOoooOOOOOOOoooOOOOOOOO      ",
"                   OOOOOOOOOOOOOOOOOOOOOoooooooOOOOOOOOOO       ",
"                     OOOOOOOOOOOOOOOOOOOOOOOOOOOOOOOOOO         ",
"                       OOOOOOOOOOOOOOOOOOOOOOOOOOOOOO           ",
"                          OOOOOOOOOOOOOOOOOOOOOOOO              ",
"                               OOOOOOOOOOOOOO                   ",
"                                                                ",
"                                                                ",
"                                                                ",
"                                                                ",
"                                                                ",
"                                                                ",
"                                                                ",
"                                                                ",
"                                                                ",
"                                                                ",
"                                                                ",
"                                                                ",
"                                                                ",
"                                                                ",
"                                                                ",
"                                                                ",
"                                                                ",
"                                                                ",
"                                                                "
};
