/* XPM */
static char *result[] = {
/* columns rows colors chars-per-pixel */
"64 64 4 1 ",
"  c #B97A57",
". c #FFC90E",
"X c #FFF200",
"o c None",
/* pixels */
"oooooooooooooooooooooooooooooooooooooooooooooooooooooooooooooooo",
"oooooooooooooooooooooooooooooooooooooooooooooooooooooooooooooooo",
"oooooooooooooooooooooooooooooooooooooooooooooooooooooooooooooooo",
"oooooooooooooooooooooooooooooooooooooooooooooooooooooooooooooooo",
"oooooooooooooooooooooooooooooooooooooooooooooooooooooooooooooooo",
"oooooooooooooooooooooooooooooooooooooooooooooooooooooooooooooooo",
"oooooooooooooooooooooooooooooooooooooooooooooooooooooooooooooooo",
"oooooooooooooooooooooooooooooooooooooooooooooooooooooooooooooooo",
"oooooooooooooooooooooooooooooooooooooooooooooooooooooooooooooooo",
"oooooooooooooooooooooooooooooooooooooooooooooooooooooooooooooooo",
"oooooooooooooooooooooooooooooooooooooooooooooooooooooooooooooooo",
"oooooooooooooooooooooooooooooooooooooooooooooooooooooooooooooooo",
"oooooooooooooooooooooooooooooooooooooooooooooooooooooooooooooooo",
"oooooooooooooooooooooooooooooooooooooooooooooooooooooooooooooooo",
"oooooooooooooooooooooooooooooooooooooooooooooooooooooooooooooooo",
"oooooooooooooooooooooooooooooooooooooooooooooooooooooooooooooooo",
"ooooooooooooooooooooooooooooooooooo.......oooooooooooooooooooooo",
"ooooooooooooooooooooooooooooooooo..XXXXXXX..oooooooooooooooooooo",
"oooooooooooooooooooooooooooooooo.XXXXXXXXXXX.ooooooooooooooooooo",
"oooooooooooooooooooooooooooooo..XXXXXXXXXXXXX..ooooooooooooooooo",
"oooooooooooooooooooooooooooooo.XXXXXXXXXXXXXXX.ooooooooooooooooo",
"ooooooooooooooooooooooooooooo.XXXXXXXXXXXXXXXXX.oooooooooooooooo",
"oooooooooooooooooooooooooooo.XXXXXXXXXXXXXXXXXXX.ooooooooooooooo",
"oooooooooooooooooooooooooooo.XXXXXXXXXXXXXXXXXXX.ooooooooooooooo",
"ooooooooooooooooooooooooooo.XXXX...........XXXXXX.oooooooooooooo",
"ooooooooooooooooooooooooooo......XXXXXXXXX......X.oooooooooooooo",
"ooooooooooooooooooooooooXXXXXXXXXXXXXXXXXXXXXXX...oooooooooooooo",
"ooooooooooooooooooooooXXXXXXXXXXXXXXXXXXXXXXXXXXXXXXXooooooooooo",
"ooooooooooooooooooooXXXXXXXXXXXXXXXXXXXXXXXXXXXXXXXXXXXooooooooo",
"oooooooooooooooooo.XXXXXXXXXXXXXXXXXXXXXXXXXXXXXXXXXXXX.Xooooooo",
"oooooooooooooooooXX.XXXXXXXXXXXXXXXXXXXXXXXXXXXXXXXXXX.XXXoooooo",
"ooooooooooooooooXXX.XXXXXXXXXXXXXXXXXXXXXXXXXXXXXXXXXX.XXXXooooo",
"ooooooooooooooooXXXX.XXXXXXXXXXXXXXXXXXXXXXXXXXXXXXXX.XXXXXooooo",
"oooooooooooooooXXXXX.XXXXXXXXXXXXXXXXXXXXXXXXXXXXXXXX.XXXXXXoooo",
"oooooooooooooooXXXXX.XXXXXXXXXXXXXXXXXXXXXXXXXXXXXXXX.XXXXXXoooo",
"ooooooooooooooooXXXX.XXXXXXXXXXXXXXXXXXXXXXXXXXXXXXXX.XXXXXXoooo",
"ooooooooooooooooXXXX.XXXXXXXXXXXXXXXXXXXXXXXXXXXXXXXX.XXXXXXoooo",
"oooooooooooooooooXX.XXXXXXXXXXXXXXXXXXXXXXXXXXXXXXXXX.XXXXXooooo",
"oooooooooooooooooXX.XXXXXXXXXXXXXXXXXXXXXXXXXXXXXXXXX.XXXXXooooo",
"oooooooooooooooooo.XXXXXXXXXXXXXXXXXXXXXXXXXXXXXXXXXXX.XXXoooooo",
"oooooooooooooooooooXXXXXXXXXXXXXXXXXXXXXXXXXXXXXXXXXXX.XXooooooo",
"oooooooooooooooooooooXXXXXXXXXXXXXXXX XXXXXXXXXXXXXXXXX.oooooooo",
"oooooooooooooooooooooooXXXXXXXXXXXXX X XXXXXXXXXXXXXXooooooooooo",
"ooooooooooooooooooooooooooXXXXXXXXXXX XXXXXXXXXXXXoooooooooooooo",
"oooooooooooooooooooooooooooooooXXXXXXXXXXXXXXooooooooooooooooooo",
"oooooooooooooooooooooooooooooooooooooooooooooooooooooooooooooooo",
"oooooooooooooooooooooooooooooooooooooooooooooooooooooooooooooooo",
"oooooooooooooooooooooooooooooooooooooooooooooooooooooooooooooooo",
"oooooooooooooooooooooooooooooooooooooooooooooooooooooooooooooooo",
"oooooooooooooooooooooooooooooooooooooooooooooooooooooooooooooooo",
"oooooooooooooooooooooooooooooooooooooooooooooooooooooooooooooooo",
"oooooooooooooooooooooooooooooooooooooooooooooooooooooooooooooooo",
"oooooooooooooooooooooooooooooooooooooooooooooooooooooooooooooooo",
"oooooooooooooooooooooooooooooooooooooooooooooooooooooooooooooooo",
"oooooooooooooooooooooooooooooooooooooooooooooooooooooooooooooooo",
"oooooooooooooooooooooooooooooooooooooooooooooooooooooooooooooooo",
"oooooooooooooooooooooooooooooooooooooooooooooooooooooooooooooooo",
"oooooooooooooooooooooooooooooooooooooooooooooooooooooooooooooooo",
"oooooooooooooooooooooooooooooooooooooooooooooooooooooooooooooooo",
"oooooooooooooooooooooooooooooooooooooooooooooooooooooooooooooooo",
"oooooooooooooooooooooooooooooooooooooooooooooooooooooooooooooooo",
"oooooooooooooooooooooooooooooooooooooooooooooooooooooooooooooooo",
"oooooooooooooooooooooooooooooooooooooooooooooooooooooooooooooooo",
"oooooooooooooooooooooooooooooooooooooooooooooooooooooooooooooooo"
};
