/* XPM */
static char *result[] = {
/* columns rows colors chars-per-pixel */
"64 64 6 1 ",
"  c black",
". c #ED1C24",
"X c #B97A57",
"o c #FFC90E",
"O c #FFF200",
"+ c None",
/* pixels */
"++++++++++++++++++++++++++++++++++++++++++++++++++++++++++++++++",
"++++++++++++++++++++++++++++++++++++++++++++++++++++++++++++++++",
"++++++++++++++++++++++++++++++++++++++++++++++++++++++++++++++++",
"++++++++++++++++++++++++++++++++++++++++++++++++++++++++++++++++",
"++++++++++++++++++++++++++++++++++++++++++++++++++++++++++++++++",
"++++++++++++++++++++++++++++++++++++++++++++++++++++++++++++++++",
"++++++++++++++++++++++++++++++++++++++++++++++++++++++++++++++++",
"++++++++++++++++++++++++++++++++++++++++++++++++++++++++++++++++",
"++++++++++++++++++++++++++++++++++++++++++++++++++++++++++++++++",
"++++++++++++++++++++++++++++++++++++++++++++++++++++++++++++++++",
"++++++++++++++++++++++++++++++++++++++++++++++++++++++++++++++++",
"++++++++++++++++++++++++++++++++++++++++++++++++++++++++++++++++",
"++++++++++++++++++++++++++++++++++++++++++++++++++++++++++++++++",
"++++++++++++++++++++++++++++++++++++++++++++++++++++++++++++++++",
"++++++++++++++++++++++++++++++++++++++++++++++++++++++++++++++++",
"++++++++++++++++++++++++++++++                  ++++++++++++++++",
"++++++++++++++++++++++++++++++                  ++++++++++++++++",
"++++++++++++++++++++++++++++++                  ++++++++++++++++",
"++++++++++++++++++++++++++++++                  ++++++++++++++++",
"++++++++++++++++++++++++++++++..................++++++++++++++++",
"+++++++++++++++++++++++                               ++++++++++",
"+++++++++++++++++++++++++++++oOOOOOOOOOOOOOOOOOo++++++++++++++++",
"++++++++++++++++++++++++++++oOOOOOOOOOOOOOOOOOOOo+++++++++++++++",
"++++++++++++++++++++++++++++oOOOOOOOOOOOOOOOOOOOo+++++++++++++++",
"+++++++++++++++++++++++++++oOOOOoooooooooooOOOOOOo++++++++++++++",
"+++++++++++++++++++++++++++ooooooOOOOOOOOOOoooooOo++++++++++++++",
"++++++++++++++++++++++++OOOOOOOOOOOOOOOOOOOOOOOooo++++++++++++++",
"++++++++++++++++++++++OOOOOOOOOOOOOOOOOOOOOOOOOOOOOOO+++++++++++",
"++++++++++++++++++++OOOOOOOOOOOOOOOOOOOOOOOOOOOOOOOOOOO+++++++++",
"++++++++++++++++++oOOOOOOOOOOOOOOOOOOOOOOOOOOOOOOOOOOOOoO+++++++",
"+++++++++++++++++OOoOOOOOOOOOOOOOOOOOOOOOOOOOOOOOOOOOOoOOO++++++",
"++++++++++++++++OOOoOOOOOOOOOOOOOOOOOOOOOOOOOOOOOOOOOOoOOOO+++++",
"++++++++++++++++OOOOoOOOOOOOOOOOOOOOOOOOOOOOOOOOOOOOOoOOOOO+++++",
"+++++++++++++++OOOOOoOOOOOOOOOOOOOOOOOOOOOOOOOOOOOOOOoOOOOOO++++",
"+++++++++++++++OOOOOoOOOOOOOOOOOOOOOOOOOOOOOOOOOOOOOOoOOOOOO++++",
"++++++++++++++++OOOOoOOOOOOOOOOOOOOOOOOOOOOOOOOOOOOOOoOOOOOO++++",
"++++++++++++++++OOOOoOOOOOOOOOOOOOOOOOOOOOOOOOOOOOOOOoOOOOOO++++",
"+++++++++++++++++OOoOOOOOOOOOOOOOOOOOOOOOOOOOOOOOOOOOoOOOOO+++++",
"+++++++++++++++++OOoOOOOOOOOOOOOOOOOOOOOOOOOOOOOOOOOOoOOOOO+++++",
"++++++++++++++++++oOOOOOOOOOOOOOOOOOOOOOOOOOOOOOOOOOOOoOOO++++++",
"+++++++++++++++++++OOOOOOOOOOOOOOOOOOOOOOOOOOOOOOOOOOOoOO+++++++",
"+++++++++++++++++++++OOOOOOOOOOOOOOOOXOOOOOOOOOOOOOOOOOo++++++++",
"+++++++++++++++++++++++OOOOOOOOOOOOOXOXOOOOOOOOOOOOOO+++++++++++",
"++++++++++++++++++++++++++OOOOOOOOOOOXOOOOOOOOOOOO++++++++++++++",
"+++++++++++++++++++++++++++++++OOOOOOOOOOOOOO+++++++++++++++++++",
"++++++++++++++++++++++++++++++++++++++++++++++++++++++++++++++++",
"++++++++++++++++++++++++++++++++++++++++++++++++++++++++++++++++",
"++++++++++++++++++++++++++++++++++++++++++++++++++++++++++++++++",
"++++++++++++++++++++++++++++++++++++++++++++++++++++++++++++++++",
"++++++++++++++++++++++++++++++++++++++++++++++++++++++++++++++++",
"++++++++++++++++++++++++++++++++++++++++++++++++++++++++++++++++",
"++++++++++++++++++++++++++++++++++++++++++++++++++++++++++++++++",
"++++++++++++++++++++++++++++++++++++++++++++++++++++++++++++++++",
"++++++++++++++++++++++++++++++++++++++++++++++++++++++++++++++++",
"++++++++++++++++++++++++++++++++++++++++++++++++++++++++++++++++",
"++++++++++++++++++++++++++++++++++++++++++++++++++++++++++++++++",
"++++++++++++++++++++++++++++++++++++++++++++++++++++++++++++++++",
"++++++++++++++++++++++++++++++++++++++++++++++++++++++++++++++++",
"++++++++++++++++++++++++++++++++++++++++++++++++++++++++++++++++",
"++++++++++++++++++++++++++++++++++++++++++++++++++++++++++++++++",
"++++++++++++++++++++++++++++++++++++++++++++++++++++++++++++++++",
"++++++++++++++++++++++++++++++++++++++++++++++++++++++++++++++++",
"++++++++++++++++++++++++++++++++++++++++++++++++++++++++++++++++",
"++++++++++++++++++++++++++++++++++++++++++++++++++++++++++++++++"
};
