/* XPM */
static char *result[] = {
/* columns rows colors chars-per-pixel */
"64 64 15 1 ",
"  c black",
". c #22B14C",
"X c #22B84D",
"o c #21BE4F",
"O c #1FD453",
"+ c #1ED653",
"@ c #1ED853",
"# c #1DE255",
"$ c #1EE056",
"% c #1DE656",
"& c #1EE656",
"* c #1EE757",
"= c #FFF200",
"- c #F26F9B",
"; c #00A2E8",
/* pixels */
"................................................................",
"................................................................",
".........................;;;;;..................................",
"........................;;;;;;;.................................",
".......................;;;;;;;;;................................",
".................;;;;;.;;;;;;;;;;;;;............................",
"................;;;;;;;;;;;;;;;;;;;;;...........................",
"...............;;;;;;;;;;;;;;;;;;;;;;;..........................",
"...............;;;;;;;;;;;;;;;;;;;;;;;..........................",
"...............;;;;;;;;;=====;;;;;;;;;..........................",
"..............;;;;;;;;;=======;;;;;;;...........................",
".............;;;;;;;;;=========;;;;;............................",
"............;;;;;;;;=============;;;;;;;........................",
"............;;;;;;;===============;;;;;;;.......................",
"............;;;;;;;==============;;;;;;;;;......................",
"&X...........;;;;;;==============;;;;;;;;;......................",
"&Oo...........;;;;;======== === =;;;;;;;;;......................",
"&&&XX.........;;;;;===============;;;;;;;.......................",
"OO&&OXo......;;;;;;;===== =======;;;;;;;........................",
"..$&&&$X.....;;;;;;;;====  =====;;;;;;;.........................",
"...OO&&&X....;;;;;;;;;====    =;;;;;;;;;........................",
".....O$&&.....;;;;;;;;;;;===;;;;;;;;;;;;........................",
".......O&&.....;;;;;;;;;;;;;;;;;;;;;;;;;........................",
"........&&X.......;;;;;;;;;;;;;;;;;;;;;.............---.........",
"........O&&X......;;;;;;;;;;;;;;;;;;;;........---..-----........",
".........$&&.....X;;;;;;;;;;;;;;;............-----.-----.---....",
"..........O&&....@&;;;;;;;.;;;;;............-----------------...",
"...........&&o...&&.;;;;;...;;;.XoXXXX..----------------------..",
"...........O&&..X&&..........oXXO$OOOO.----------=====-------...",
"............O&&.+&&........XX$OO&&&&&&--------- ========----....",
".............&&.&&.......oXOO&&&&$OOOO---------=== ======-----..",
".............O&&&&.....XX$O&&&OO......---------==========------.",
"..............&&&&....oOO&&&O..........-------===========-------",
"..............O&&&..oX$&&&O.............-----=============-----.",
"...............&&&.X$O&&O.................---====== ======----..",
"...............&&&oO&&&..................-----===   =====----...",
"...............O&&$&&O..................-------   =======-----..",
"................&%&&....................-------=========------..",
"................&&&.....................----------===---------..",
"................*&&......................---------------------..",
"................&&&.......................--------------------..",
"................&*............................-----&-----.---...",
"................&&.............................---.&&---........",
"................&&.................................&&...........",
"................&&.................................$&&..........",
"................&&..................................&&..........",
"................&&..................................&&..oX......",
"................&&.........................Xooo.....&&.o$O......",
"................$..........................O$$$oXo..&&o$&&&.....",
"...........................................&&&&&O$X.&&#&&O......",
"...........................................O$$$&&&&o&&&&........",
"...............................................$O$&&&&&&........",
"..................................................O&&&&.........",
"...................................................$*&&.........",
"....................................................&&&.........",
"....................................................&&&.........",
"....................................................$*&.........",
".....................................................&&.........",
".....................................................&&.........",
".....................................................&&.........",
".....................................................$..........",
"................................................................",
"................................................................",
"................................................................"
};
