/* XPM */
static char *result[] = {
/* columns rows colors chars-per-pixel */
"64 64 8 1 ",
"  c black",
". c #084217",
"X c #0C6624",
"o c #ED1C24",
"O c #22B14C",
"+ c #00A2E8",
"@ c white",
"# c None",
/* pixels */
"##############################XXX###############################",
"#############################XXXXX##############################",
"############################XXXOXXX#############################",
"###########################XXXOOOXXX############################",
"#########################XXXXXOOOXXXXX##########################",
"#######################XXXXXXOOOOOXXXXXX########################",
"#####################XXXXXXOOOOOOOOOXXXXXX######################",
"###################XXXXXXOOOOOOOOOOOOOXXXXXX####################",
"###################XXXXOOOOOOOOOOOOOOOOOXXXX####################",
"##################XXOOOOOOOOOOOOOOOOOOOOOOOXX###################",
"################XXXXOOO@@@@OOOOOOOOO@@@@OOOXXXX#################",
"###############XXXXOOO@@@@@@OOOOOOO@@@@@@OOOXXXX################",
"###############XXXOOO@@@@@@@OOOOOOO@@@@@@@OOOXXX################",
"###############XXOOOO@@@@@@@@OOOOO@@@@@@@@OOOOXX################",
"##############XXXOOOO@@++++@@OOOOO@@++++@@OOOOXXX###############",
"##############XXXOOOO@@++++@@OOOOO@@++++@@OOOOXXX###############",
"##############XXXOOOO@@+  +@@OOOOO@@+  +@@OOOOXXX###############",
"##############XXXOOOO@@+  +@@OOOOO@@+  +@@OOOOXXX###############",
"###############XXXOOO@@+  +@@OOOOO@@+  +@@OOOXXX################",
"###############XXXXOOOOOOOOOOOOOOOOOOOOOOOOOXXXX################",
"################XXXXOOOOOOOOOOOOOOOOOOOOOOOXXXX#################",
"#################XXXXOOOOOOOOOOOOOOOOOOOOOXXXX##################",
"##################XXXOOOOOOOXXOOOXXOOOOOOOXXX###################",
"###################XXOOOOOOOXXOOOXXOOOOOOOXX####################",
"###################XXOOOOOOOOOOOOOOOOOOOOOXX####################",
"##################XXXOOOOOOOOOOOOOOOOOOOOOXXX###################",
"##################XXXOOOOOOOOOOOOOOOOOOOOOXXX###################",
"#################XXXOOOOOOOOOOOOOOOOOOOOOOOXXX##################",
"#################XXXOOOOOOOOOOOOOOOOOOOOOOOXXX##################",
"#################XXOOOOOOOOXXOOOOOXXOOOOOOOOXX##################",
"#################XXOOOOOOOOXXOOOOOXXOOOOOOOOXX##################",
"#################XXOOOOOOOOOOOOOOOOOOOOOOOOOXX##################",
"#################XXOOOOOOOOOOOOOOOOOOOOOOOOOXX##################",
"#################XXOOOOOOOOOOOOOOOOOOOOOOOOOXX##################",
"#################XXOOOOOOOOOOOOOOOOOOOOOOOOOXX##################",
"#################XXOOOOOOOOOOOOOOOOOOOOOOOOOXX##################",
"#################XXOOOOOOOXXOOOOOOOXXOOOOOOOXX##################",
"#################XXOOOOOOOXXOOOOOOOXXOOOOOOOXX##################",
"#################XXOOOOOOOOOOOOOOOOOOOOOOOOOXX##################",
"#################XXOOOOOOOOOOOOOOOOOOOOOOOOOXX##################",
"#################XXOOOOOOOOOOOOOOOOOOOOOOOOOXX##################",
"#################XXXOOOOOOOOOOOOOOOOOOOOOOOXXX##################",
"#################XXXOOOOOXXOOOOOOOOOXXOOOOOXXX##################",
"##################XXOOOOOXXOOOOOOOOOXXOOOOOXX###################",
"##################XXOOOOOOOOOOOOOOOOOOOOOOOXX###################",
"##################XXOOOOOOOOOOOOOOOOOOOOOOOXX###################",
"#################XXXOOOOXXOOOOOOOOOOOXXOOOOXXX##################",
"#################XXXOOOXXXXOOOOOOOOOXXXXOOOXXX##################",
"#################XXOOOOXXXXOOOOOOOOOXXXXOOOOXX##################",
"#################XXXOOOOOOOOOOOOOOOOOOOOOOOXXX##################",
"#################XXXXOOOOOOOOXXXXXOOOOOOOOXXXX##################",
"################..XXXXXOOOOXXXXXXXXXOOOOXXXXX..#################",
"################..ooXXXXXXXXXXXoXXXXXXXXXXXoo..#################",
"################..oooXXXXXXXXoooooXXXXXXXXooo..#################",
"################..@@ooooooooooooooooooooooo@@..#################",
"################..@@ooooooooooooooooooooooo@@..#################",
"################..oooooooooo@@ooo@@oooooooooo..#################",
"################..oo@@oo@@oo@@...@@oo@@oo@@oo..#################",
"################...o@@oo@@ooo.....ooo@@oo@@o...#################",
"##################...........................###################",
"###################............#............####################",
"################################################################",
"################################################################",
"################################################################"
};
