/* XPM */
static char *e7dbd045eab54d90b11e4804a04a45f8gqyQtgdBalCUtAAl[] = {
/* columns rows colors chars-per-pixel */
"64 64 6 1 ",
"  c None",
". c black",
"X c gray50",
"o c #ED1C24",
"O c #FF7F27",
"+ c white",
/* pixels */
"                                                                ",
"                                                                ",
"                                                                ",
"                                                                ",
"                                                                ",
"                                                                ",
"                                                                ",
"                   ++++++++++                                   ",
"           .    +++++++++++++++++                               ",
"           .   ++++++++++++++++++++                             ",
"           .  ++++++++++++++++++++++                            ",
"           . ++++++++++++++++++++++++                           ",
"      ....o. +++++++++++++++++++++++++                          ",
"      ....o.++++++++++++++++++++++++++                          ",
"      ....o.+++++++++++   +++++++++++++                         ",
"      ....o.++.++++++      +++++++++++++                        ",
"      ....o.+.+.++++        ++++++++++++                        ",
"      ....o.++.+++++         +++++++++++                        ",
"      ....o.+++++++           ++++++++++                        ",
"      ....o.++++O++           +++++++++++                       ",
"           . ++OOO+            ++++++++++                       ",
"           .   OOO             +++++++++++                      ",
"           .   OOO             +++++++++++                      ",
"           .   OOO             +++++++++++                      ",
"               OOO             +++++++++++                      ",
"                O              +++++++++++                      ",
"                               +++++++++++                      ",
"                               +++++++++++                      ",
"                               +++++++++++                      ",
"                               +++++++++++                      ",
"                               +++++++++++                      ",
"                               +++++++++++                      ",
"                              ++++++++++++                      ",
"                              ++++++++++++                      ",
"                              +++++++++++                       ",
"                             ++++++++++++                       ",
"                             +++++++++++                        ",
"                             +++++++++++                        ",
"                            +++++++++++                         ",
"                            +++++++++++                         ",
"                           +++++++++++                          ",
"                           +++++++++++++++++++++                ",
"                          +++++++++++++++++++++++++++           ",
"                         ++++++++++++++++++++++++++++++         ",
"                         +++++++++++++++++++++++++++++++++      ",
"                        +++++++++++++++++++++++++++++++++++     ",
"                      ++++++++++++++++++XXXXXXXXX++++++++++++   ",
"                     ++++++++++++++++XXX+++++++++XXX++++++++++  ",
"                     +++++++++++++++X+++++++++++++++X+++++++++  ",
"                    +++++++++++++++X+++++++++++++++++X+++++++++ ",
"                   +++++++++++++++X+++++++++++++++++++X+++++++++",
"                   +++++++++++++++X+++++++++++++++++++X+++++++++",
"                   +++++++++++++++X+++++++++++++++++++X+++++++++",
"                   ++++++++++++++++X+++++++++++++++++X++++++++++",
"                   +++++++++++++++++X+++++++++++++++X+++++++++++",
"                    +++++++++++++++++XXX+++++++++XXX+++++++++++ ",
"                     +++++++++++++++++++XXXXXXXXX+++++++++++++  ",
"                     +++++++++++++++++++++++++++++++++++++++++  ",
"                      +++++++++++++++++++++++++++++++++++++++   ",
"                        +++++++++++++++++++++++++++++++++++     ",
"                         +++++++++++++++++++++++++++++++++      ",
"                            +++++++++++++++++++++++++++         ",
"                              +++++++++++++++++++++++           ",
"                                   +++++++++++++                "
};
