/* XPM */
static char *_c6627d67449442ad35cd7d8cc38533anagjUg5H40OzurMp[] = {
/* columns rows colors chars-per-pixel */
"64 64 7 1 ",
"  c #0C6624",
". c #0E772A",
"X c #B97A57",
"o c #17B945",
"O c #22B14C",
"+ c #18C147",
"@ c #1EE656",
/* pixels */
"            ..                                                  ",
"            ..                                                  ",
"        ..                                                      ",
"        ..                                                      ",
"      ....  oo    ..                OO                          ",
"      ....  oo    ..                OO                          ",
"        oo                OOOO  OOOO          ..                ",
"        oo                OOOO  OOOO          ..                ",
"      oo    @@  oo  ..      OOOOOO        ..                    ",
"      oo    @@  oo  ..      OOOOOO        ..                    ",
"          @@@@@@  oo          OOOO      ....  oo    ..          ",
"          @@@@@@  oo          OOOO      ....  oo    ..          ",
"        @@@@@@@@@@oo            OO        oo                    ",
"        @@@@@@@@@@oo            OO        oo                    ",
"      ..  @@@@@@                        oo    @@  oo  ..        ",
"      ..  @@@@@@                        oo    @@  oo  ..        ",
"    oo      @@  ..                          @@@@@@  oo          ",
"    oo      @@  ..                          @@@@@@  oo          ",
"        oooo++                            @@@@@@@@@@oo          ",
"        oooo++                            @@@@@@@@@@oo          ",
"            ..  oooo        ..          ..  @@@@@@              ",
"            ..  oooo        ..          ..  @@@@@@              ",
"                        ..            oo      @@  ..            ",
"                        ..            oo      @@  ..            ",
"                      ....  oo    ..      oooo++                ",
"                      ....  oo    ..      oooo++                ",
"                        oo                    ..  oooo          ",
"                        oo                    ..  oooo          ",
"                      oo    @@  oo  ..                          ",
"                      oo    @@  oo  ..                          ",
"                          @@@@@@  oo                            ",
"                          @@@@@@  oo                            ",
"                        @@@@@@@@@@oo        XX        OOOO      ",
"                        @@@@@@@@@@oo        XX        OOOO      ",
"                      ..  @@@@@@          XX            OOOO    ",
"                      ..  @@@@@@          XX            OOOO    ",
"      OOOO          oo      @@  ..          XX            OOOO  ",
"      OOOO          oo      @@  ..          XX            OOOO  ",
"        OOOO            oooo++                      ..          ",
"        OOOO            oooo++                      ..          ",
"            OO              ..  oooo            ..              ",
"            OO              ..  oooo            ..              ",
"              OO          OO                  ....  oo    ..    ",
"              OO          OO                  ....  oo    ..    ",
"              OOOO    OOOOOO                    oo              ",
"              OOOO    OOOOOO                    oo              ",
"        OOOOOO  OO  OOOO                      oo    @@  oo  ..  ",
"        OOOOOO  OO  OOOO                      oo    @@  oo  ..  ",
"            OOOOOOOOOO                            @@@@@@  oo    ",
"            OOOOOOOOOO                            @@@@@@  oo    ",
"                OOOO                            @@@@@@@@@@oo    ",
"                OOOO                            @@@@@@@@@@oo    ",
"                OO                            ..  @@@@@@        ",
"                OO                            ..  @@@@@@        ",
"                OO                          oo      @@  ..      ",
"                OO                          oo      @@  ..      ",
"                                                oooo++          ",
"                                                oooo++          ",
"                                                    ..  oooo    ",
"                                                    ..  oooo    ",
"                                                                ",
"                                                                ",
"                                                                ",
"                                                                "
};
