/* XPM */
static char *_68783eb974348198fcb686f0cf7325ekAyjMHcdC2EETfxZ[] = {
/* columns rows colors chars-per-pixel */
"64 64 5 1 ",
"  c None",
". c black",
"X c #FF7F27",
"o c #FFC90E",
"O c #FFF200",
/* pixels */
"                                                                ",
"                                                                ",
"                                                                ",
"                                                                ",
"                                                                ",
"                                     ..................         ",
"                                     ..................         ",
"                                     ..................         ",
"                                     ..................         ",
"                                     ..................         ",
"                                     ..................         ",
"                                     ..................         ",
"                                     ..................         ",
"                                     ..................         ",
"                                     ..................         ",
"                             .................................  ",
"                                     OOOOOOOOOOOOOOOOOO         ",
"                                    OOOOOOOOOOOOOOOOOOOO        ",
"                                   OOOOOOOOOOOOOOOOOOOOOO       ",
"                                   OOOOOOOOOOOOOOOOOOOOOO       ",
"                                   OOOOO..OOOOOOOOOOOOOO.       ",
"                                  OOOOO....OOOOOOOOOOOOO..      ",
"                                  OOOOO....OOOOOOOOOOOOOO.      ",
"                                  OOOOOO..OOOOOOOOOOOOOOOO      ",
"                                  OOOOOOOOOOOOOOOOOOOOOOOO      ",
"                   OOOOOOOOOOOOOO oOOOOOOOOOOOOOOOOOOOOOOO      ",
"              OOOOOOOOOOOOOOOOOOOOoOOOOOOOOOOOOOOOOOOOOOOO      ",
"           OOOOOOOOOOOOOOOOOOOOOOOoOOOOOOOOOOOXXXXXXXXXXXXXXXX  ",
"         OOOOOOOOOOOOOOOOOOOOOOOOOooOOOOOOOOOXXXXXXXXXXXXXXXXXX ",
"       OOOOOOOOOOOOOOOOOOOOOOOOOOOOoOOOOOOOOOXXXXXXXXXXXXXXXXXX ",
"      OOOOOOOOOOOoooooooOOOOOOOOOOOOooOOOOOOOOXXXXXXXXXXXXXXXX  ",
"     OOOOOOOOOoooOOOOOOOoooOOOOOOOOOOooOOOOOOOOOOOOOOOO         ",
"     OOOOOOOOoOOOOOOOOOOOOOoOOOOOOOOOOoooOOOOOOOOOOOOO          ",
"    OOOOOOOOoOOOOOOOOOOOOOOOoOOOOOOOOOOOoooOOOOOOOOO            ",
"    OOOOOOOoOOOOOOOOOOOOOOOOOoOOOOOOOOOOOOooooOOOO              ",
"    OOOOOOOoOOOOOOOOOOOOOOOOOoOOOOOOOOOOOOOOOooo                ",
"    OOOOOOOoOOOOOOOOOOOOOOOOOoOOOOOOOOOOOOOOOOOO                ",
"     OOOOOOOoOOOOOOOOOOOOOOOoOOOOOOOOOOOOOOOOOO                 ",
"     OOOOOOOOoOOOOOOOOOOOOOoOOOOOOOOOOOOOOOOOOO                 ",
"      OOOOOOOOoooOOOOOOOoooOOOOOOOOOOOOOOOOOOO                  ",
"       OOOOOOOOOOoooooooOOOOOOOOOOOOOOOOOOOOO                   ",
"         OOOOOOOOOOOOOOOOOOOOOOOOOOOOOOOOOO                     ",
"           OOOOOOOOOOOOOOOOOOOOOOOOOOOOOO                       ",
"              OOOOOOOOOOOOOOOOOOOOOOOO                          ",
"                   OOOOOOOOOOOOOO                               ",
"                                                                ",
"                                                                ",
"                                                                ",
"                                                                ",
"                                                                ",
"                                                                ",
"                                                                ",
"                                                                ",
"                                                                ",
"                                                                ",
"                                                                ",
"                                                                ",
"                                                                ",
"                                                                ",
"                                                                ",
"                                                                ",
"                                                                ",
"                                                                ",
"                                                                "
};
