/* XPM */
static char *ee15548b8a0d4cab981627473c65192ckYac88VyixT1eMWU[] = {
/* columns rows colors chars-per-pixel */
"64 64 5 1 ",
"  c None",
". c black",
"X c #FF7F27",
"o c #FFC90E",
"O c #FFF200",
/* pixels */
"                                                                ",
"                                                                ",
"                                                                ",
"                                                                ",
"                                                                ",
"         ..................                                     ",
"         ..................                                     ",
"         ..................                                     ",
"         ..................                                     ",
"         ..................                                     ",
"         ..................                                     ",
"         ..................                                     ",
"         ..................                                     ",
"         ..................                                     ",
"         ..................                                     ",
"  .................................                             ",
"         OOOOOOOOOOOOOOOOOO                                     ",
"        OOOOOOOOOOOOOOOOOOOO                                    ",
"       OOOOOOOOOOOOOOOOOOOOOO                                   ",
"       OOOOOOOOOOOOOOOOOOOOOO                                   ",
"       .OOOOOOOOOOOOOO..OOOOO                                   ",
"      ..OOOOOOOOOOOOO....OOOOO                                  ",
"      .OOOOOOOOOOOOOO....OOOOO                                  ",
"      OOOOOOOOOOOOOOOO..OOOOOO                                  ",
"      OOOOOOOOOOOOOOOOOOOOOOOO                                  ",
"      OOOOOOOOOOOOOOOOOOOOOOOo OOOOOOOOOOOOOO                   ",
"      OOOOOOOOOOOOOOOOOOOOOOOoOOOOOOOOOOOOOOOOOOOO              ",
"  XXXXXXXXXXXXXXXXOOOOOOOOOOOoOOOOOOOOOOOOOOOOOOOOOOO           ",
" XXXXXXXXXXXXXXXXXXOOOOOOOOOooOOOOOOOOOOOOOOOOOOOOOOOOO         ",
" XXXXXXXXXXXXXXXXXXOOOOOOOOOoOOOOOOOOOOOOOOOOOOOOOOOOOOOO       ",
"  XXXXXXXXXXXXXXXXOOOOOOOOooOOOOOOOOOOOOoooooooOOOOOOOOOOO      ",
"         OOOOOOOOOOOOOOOOooOOOOOOOOOOoooOOOOOOOoooOOOOOOOOO     ",
"          OOOOOOOOOOOOOoooOOOOOOOOOOoOOOOOOOOOOOOOoOOOOOOOO     ",
"            OOOOOOOOOoooOOOOOOOOOOOoOOOOOOOOOOOOOOOoOOOOOOOO    ",
"              OOOOooooOOOOOOOOOOOOoOOOOOOOOOOOOOOOOOoOOOOOOO    ",
"                oooOOOOOOOOOOOOOOOoOOOOOOOOOOOOOOOOOoOOOOOOO    ",
"                OOOOOOOOOOOOOOOOOOoOOOOOOOOOOOOOOOOOoOOOOOOO    ",
"                 OOOOOOOOOOOOOOOOOOoOOOOOOOOOOOOOOOoOOOOOOO     ",
"                 OOOOOOOOOOOOOOOOOOOoOOOOOOOOOOOOOoOOOOOOOO     ",
"                  OOOOOOOOOOOOOOOOOOOoooOOOOOOOoooOOOOOOOO      ",
"                   OOOOOOOOOOOOOOOOOOOOOoooooooOOOOOOOOOO       ",
"                     OOOOOOOOOOOOOOOOOOOOOOOOOOOOOOOOOO         ",
"                       OOOOOOOOOOOOOOOOOOOOOOOOOOOOOO           ",
"                          OOOOOOOOOOOOOOOOOOOOOOOO              ",
"                               OOOOOOOOOOOOOO                   ",
"                                                                ",
"                                                                ",
"                                                                ",
"                                                                ",
"                                                                ",
"                                                                ",
"                                                                ",
"                                                                ",
"                                                                ",
"                                                                ",
"                                                                ",
"                                                                ",
"                                                                ",
"                                                                ",
"                                                                ",
"                                                                ",
"                                                                ",
"                                                                ",
"                                                                "
};
