/* XPM */
static char *_3fa6ccb168d4945b2067b494d8f21d1W36LIG5FTWMKI8q4[] = {
/* columns rows colors chars-per-pixel */
"64 64 5 1 ",
"  c None",
". c black",
"X c #FF7F27",
"o c #FFC90E",
"O c #FFF200",
/* pixels */
"                                                                ",
"                                                                ",
"                                                                ",
"                                                                ",
"                                                                ",
"                                                                ",
"                                                                ",
"                                                                ",
"                                                                ",
"                                                                ",
"                                                                ",
"                                                                ",
"                                                                ",
"                                                                ",
"                                                                ",
"                                                                ",
"                                   ooooooo                      ",
"                                 ooOOOOOOOoo                    ",
"                                oOOOOOOOOOOOo                   ",
"                              ooOOOOOOOOOOOOOoo                 ",
"                              oOOOOOOOOOOOOOOOo                 ",
"                             oOOOOOOOOOOOOOOOOOo                ",
"                            oOOOOOOOOOOOOOOOOOOOo               ",
"                            oOO..OOOOOOOOOOO..OOo               ",
"                           oOO....OOOOOOOOO....OOo              ",
"                           oOO....OOOOOOOOO....OOo              ",
"                        OOOoOOO..OOOOOOOOOOO..OOOo              ",
"                      OOOOOoOOOOOOOOOOOOOOOOOOOOOoOOO           ",
"                    OOOOOOOoOOOOOOOOOOOOOOOOOOOOOoOOOOO         ",
"                  oOOOOOOOOoOOOOOOOOOOOOOOOOOOOOOoOOOOOoO       ",
"                 OOoOOOOOOOoOOOOOOOOOOOOOOOOOOOOOoOOOOoOOO      ",
"                OOOoOOOOOOOOoOOOOXXXXXXXXXXXOOOOoOOOOOoOOOO     ",
"                OOOOoOOOOOOOoOOOXXXXXXXXXXXXXOOOoOOOOoOOOOO     ",
"               OOOOOoOOOOOOOOoOOOXXXXXXXXXXXOOOoOOOOOoOOOOOO    ",
"               OOOOOoOOOOOOOOOoOOOOOOOOOOOOOOOoOOOOOOoOOOOOO    ",
"                OOOOoOOOOOOOOOooOOOOOOOOOOOOOooOOOOOOoOOOOOO    ",
"                OOOOoOOOOOOOOOOOoOOOOOOOOOOOoOOOOOOOOoOOOOOO    ",
"                 OOoOOOOOOOOOOOOOooOOOOOOOooOOOOOOOOOoOOOOO     ",
"                 OOoOOOOOOOOOOOOOOOoooooooOOOOOOOOOOOoOOOOO     ",
"                  oOOOOOOOOOOOOOOOOOOOOOOOOOOOOOOOOOOOoOOO      ",
"                   OOOOOOOOOOOOOOOOOOOOOOOOOOOOOOOOOOOoOO       ",
"                     OOOOOOOOOOOOOOOOOOOOOOOOOOOOOOOOOOo        ",
"                       OOOOOOOOOOOOOOOOOOOOOOOOOOOOOO           ",
"                          OOOOOOOOOOOOOOOOOOOOOOOO              ",
"                               OOOOOOOOOOOOOO                   ",
"                                                                ",
"                                                                ",
"                                                                ",
"                                                                ",
"                                                                ",
"                                                                ",
"                                                                ",
"                                                                ",
"                                                                ",
"                                                                ",
"                                                                ",
"                                                                ",
"                                                                ",
"                                                                ",
"                                                                ",
"                                                                ",
"                                                                ",
"                                                                ",
"                                                                "
};
