/* XPM */
static char *be374bc5e2aa4bceaf5252b5f83879f5HVPXEtnY4jf1H787[] = {
/* columns rows colors chars-per-pixel */
"64 64 5 1 ",
"  c None",
". c black",
"X c #FF7F27",
"o c #FFC90E",
"O c #FFF200",
/* pixels */
"                                                                ",
"                                                                ",
"                                                                ",
"                                                                ",
"                                                                ",
"                                                                ",
"                                                                ",
"                                                                ",
"                                                                ",
"                                                                ",
"                                                                ",
"                                                                ",
"                                                                ",
"                                          OOOOOOOO              ",
"                                        OOOOOOOOOOOO            ",
"                                      OOOOOOOOOOOOOOOO          ",
"                                     OOOOOOOOOOOOOOOOOO         ",
"                                    OOOOOOOOOOOOOOOOOOOO        ",
"                                   OOOOOOOOOOOOOOOOOOOOOO       ",
"                                   OOOOOOOOOOOOOOOOOOOOOO       ",
"                                   OOOOO..OOOOOOOOOOOOOO.       ",
"                                  OOOOO....OOOOOOOOOOOOO..      ",
"                                  OOOOO....OOOOOOOOOOOOOO.      ",
"                                  OOOOOO..OOOOOOOOOOOOOOOO      ",
"                                  OOOOOOOOOOOOOOOOOOOOOOOO      ",
"                   OOOOOOOOOOOOOO oOOOOOOOOOOOOOOOOOOOOOOO      ",
"              OOOOOOOOOOOOOOOOOOOOoOOOOOOOOOOOOOOOOOOOOOOO      ",
"           OOOOOOOOOOOOOOOOOOOOOOOoOOOOOOOOOOOXXXXXXXXXXXXXXXX  ",
"         OOOOOOOOOOOOOOOOOOOOOOOOOooOOOOOOOOOXXXXXXXXXXXXXXXXXX ",
"       OOOOOOOOOOOOOOOOOOOOOOOOOOOOoOOOOOOOOOXXXXXXXXXXXXXXXXXX ",
"      OOOOOOOOOOOoooooooOOOOOOOOOOOOooOOOOOOOOXXXXXXXXXXXXXXXX  ",
"     OOOOOOOOOoooOOOOOOOoooOOOOOOOOOOooOOOOOOOOOOOOOOOO         ",
"     OOOOOOOOoOOOOOOOOOOOOOoOOOOOOOOOOoooOOOOOOOOOOOOO          ",
"    OOOOOOOOoOOOOOOOOOOOOOOOoOOOOOOOOOOOoooOOOOOOOOO            ",
"    OOOOOOOoOOOOOOOOOOOOOOOOOoOOOOOOOOOOOOooooOOOO              ",
"    OOOOOOOoOOOOOOOOOOOOOOOOOoOOOOOOOOOOOOOOOooo                ",
"    OOOOOOOoOOOOOOOOOOOOOOOOOoOOOOOOOOOOOOOOOOOO                ",
"     OOOOOOOoOOOOOOOOOOOOOOOoOOOOOOOOOOOOOOOOOO                 ",
"     OOOOOOOOoOOOOOOOOOOOOOoOOOOOOOOOOOOOOOOOOO                 ",
"      OOOOOOOOoooOOOOOOOoooOOOOOOOOOOOOOOOOOOO                  ",
"       OOOOOOOOOOoooooooOOOOOOOOOOOOOOOOOOOOO                   ",
"         OOOOOOOOOOOOOOOOOOOOOOOOOOOOOOOOOO                     ",
"           OOOOOOOOOOOOOOOOOOOOOOOOOOOOOO                       ",
"              OOOOOOOOOOOOOOOOOOOOOOOO                          ",
"                   OOOOOOOOOOOOOO                               ",
"                                                                ",
"                                                                ",
"                                                                ",
"                                                                ",
"                                                                ",
"                                                                ",
"                                                                ",
"                                                                ",
"                                                                ",
"                                                                ",
"                                                                ",
"                                                                ",
"                                                                ",
"                                                                ",
"                                                                ",
"                                                                ",
"                                                                ",
"                                                                ",
"                                                                "
};
