/* XPM */
static char *_4e324c7535a43cefa18d0b20d6be5096ZADRmnuXMaZ4Lox[] = {
/* columns rows colors chars-per-pixel */
"64 64 26 1 ",
"  c #00A2E8",
". c #14A9E8",
"X c #25AFE8",
"o c #34B4E8",
"O c #4DBDE7",
"+ c #41B8E8",
"@ c #41B9E8",
"# c #57C0E8",
"$ c #63C5E9",
"% c #70C9E9",
"& c #86D1E9",
"* c #8BD2E9",
"= c #8BD3E9",
"- c #8AD4E8",
"; c #8FD4E8",
": c #8ED4E9",
"> c #91D4E9",
", c #92D6E9",
"< c #94D6E8",
"1 c #97D7E9",
"2 c #98D7E9",
"3 c #97D8E9",
"4 c #97D8EA",
"5 c #99D8E9",
"6 c #99D9E9",
"7 c #99D9EA",
/* pixels */
"7777772&    7777777777777777777,$             777777777777777,$ ",
"                                                                ",
"                                                                ",
"   ,727&        &41744444444444,$                 &1444444444,$ ",
"      X    XX                                                   ",
"      ;X   @OX                                                  ",
"     X7=  X@@X                                                  ",
"     =27772=,@X                     XXX  X@@X                   ",
"     1&775775=X                    X=&=X@@XX@@X             .   ",
"     177777757XX                  X=3&1=,+   X@X            %   ",
"    X477777772-XX                X&7&7777771& X@X           1   ",
"    =&777777727 XX             XX&&&7777777774& X@X         4777",
"   X3 777777777&X@X           X=&& 777777777772& X@X       X4777",
"  X&&77777777771& X+X        X&4& 77777717777777&  X@X    X&&777",
" X=& 777732777771& X++X  XXXX&=:7777771& &77777774&  X@XXX&& 777",
"X=4@7777733&777777=XXX@##:::::X7777777& &4&&7777777*XXX@:;;@7777",
"&4&777774&&&777777771&&&&&&&& 7777774& &3&   777777771&&&& 77777",
"&&7777774&&   777777771&& 777777774&  &&      &777777771 7777774",
"77777772&&&    7777777777777777774& &4&         &77777777777774&",
"7777777&&&      &4777777777774&    &4&           &27777777774&  ",
"       &&         &4&             &&               &4&         &",
"      &1&          &44&       &144&                  &4&     &4&",
"  &4444&              &4444444&                        &44444&  ",
"                                                                ",
"                                                                ",
"                                                                ",
"                                                                ",
"                                                                ",
"                  XX   X@X                       XX   X+X       ",
"                 X==X X@@@X                    XX=&X+++XX+X X   ",
"                 =41&X@X  X@X                 X=&3&:,+XX X++1X  ",
"               XX4&777771=  XooX             X&4&&777777=XXX1X@@",
"              X=&&77777774=XX.Xo@@ooo.      X=&&77777777771&7777",
"  XX        XX&7&X77777777777$&$XXX.XX@@ooXX&4 77777777777772777",
"  X@X     XX&&&=777777777777777>&&&$&XXXXX@:::777777477777777777",
"   X@X XXX&&;=@7777777&&7777777777777,&&&&&& 7777774  &4&7777777",
"77**@O#:;;::X77777774&&473&7777777777777771 7777774&&44&&4& 7777",
"77774&**&& 77777771&  &&  &4&    7777777777777771& &4&   &177777",
"777774& 777777774&  &4&     &>>&      7777777774& &&        $777",
"777777777777774&   &4&         *43,,,$           &4&         777",
"777777777774&    &4&                 &44,,&     &&           777",
"  &2&          &4&                        &44444&               ",
"   &4&      &44&                                                ",
"    &4444444&                                                   ",
"                                                                ",
"                                                                ",
"                                                                ",
"                                                                ",
"    XX   X@X                                                .   ",
"    ==X  X+@X                      XXX  X++X                %   ",
"   @71=X@OXX@X                    X=&= X+XXX                1   ",
"  @22727777=X@X                  X=3&1@@X  XX               1777",
" X27&7777777=X@X                 =4&7777771=+X             X3777",
" ;7&777777772&XX                X4&777777737X+X            &7777",
"@7277777777772&XX              X&&7777777774&X+X           =7777",
"747777777777772&X@X          XX*& 77777777777&X+X         X=7777",
"1=77777227777771 X++X     XXX=&=@7777747777777&X@X     XXX&12777",
"1777777717777772=XX.@O#OOO,;;1:+777774&&7777777=X@#####,,=,=7777",
"777777727& 77777771$*&&&&&7&&&7777774&&4&77777724&&&&&&4&& 77777",
"777777271   777777777*&&&&&777777777& &&  77777774&&&&&&77777777",
"77777141     7777777777777777777774& &&    77777777777777777774&",
"7772427&       &7777777777777774&   &&       7777777777777772&  ",
"7772271         &4&               &4&         &4&              &",
"77&774           &44&          &444&           &1&          &44&"
};
